<?xml version="1.0" standalone="no"?>
<!DOCTYPE svg PUBLIC "-//W3C//DTD SVG 20010904//EN"
 "http://www.w3.org/TR/2001/REC-SVG-20010904/DTD/svg10.dtd">
<svg version="1.0" xmlns="http://www.w3.org/2000/svg"
 width="400.000000pt" height="400.000000pt" viewBox="0 0 400.000000 400.000000"
 preserveAspectRatio="xMidYMid meet">
<metadata>
Created by potrace 1.11, written by Peter Selinger 2001-2013
</metadata>
<g transform="translate(0.000000,400.000000) scale(0.100000,-0.100000)"
fill="#000000" stroke="none">
<path d="M0 2000 l0 -2000 2000 0 2000 0 0 2000 0 2000 -2000 0 -2000 0 0
-2000z m1865 881 c72 -120 133 -217 137 -215 4 3 39 60 79 127 39 67 79 133
89 147 9 14 28 45 41 69 13 24 30 54 37 67 l13 24 435 0 c238 0 434 -3 434 -6
0 -3 -29 -54 -64 -113 -35 -58 -71 -122 -81 -141 -10 -19 -21 -37 -25 -40 -4
-3 -22 -32 -40 -65 -18 -33 -37 -65 -42 -72 -13 -17 -78 -124 -78 -130 0 -2
-40 -70 -89 -151 -48 -81 -96 -162 -106 -181 -9 -19 -21 -39 -26 -45 -10 -12
-65 -102 -105 -174 -41 -73 -157 -267 -163 -272 -3 -3 -14 -21 -25 -40 -38
-72 -58 -105 -72 -121 -8 -8 -14 -19 -14 -22 0 -4 -12 -26 -26 -48 -15 -25
-24 -50 -21 -63 9 -36 90 -226 97 -226 4 0 17 24 30 53 13 28 25 53 25 54 1 2
34 -14 74 -34 42 -21 94 -38 122 -41 45 -4 49 -3 49 16 0 26 -17 35 -100 57
-114 29 -170 81 -170 157 0 79 44 138 123 164 72 24 202 16 285 -18 l62 -26 0
29 0 29 90 0 90 0 0 -270 0 -270 -90 0 -90 0 0 237 c0 130 -4 233 -8 228 -5
-6 -17 -30 -27 -55 -30 -72 -28 -71 -103 -39 -79 33 -145 39 -140 12 2 -13 30
-27 93 -48 108 -37 138 -56 159 -100 45 -95 -4 -199 -108 -230 -90 -27 -225
-12 -318 36 -34 17 -40 18 -34 5 3 -9 9 -23 12 -31 5 -13 -9 -15 -90 -15 l-97
0 -15 35 -14 35 -99 0 -98 0 -9 -32 -10 -33 -181 -3 -181 -2 -27 65 c-27 62
-30 65 -62 65 l-33 0 0 -65 0 -65 -90 0 -90 0 0 271 0 271 173 -4 c187 -5 219
-13 269 -65 35 -37 48 -73 48 -134 0 -57 -21 -113 -55 -149 l-24 -25 39 -63
c21 -35 40 -60 43 -55 3 4 25 58 50 118 25 61 57 136 71 168 l26 58 -22 41
c-13 22 -27 48 -33 57 -25 40 -161 267 -165 276 -3 6 -12 21 -21 35 -27 41
-204 341 -234 395 -15 28 -42 73 -60 100 -18 28 -50 81 -71 118 -56 97 -71
123 -144 243 -35 59 -71 120 -80 136 -8 15 -39 68 -67 118 -29 49 -53 92 -53
95 0 3 195 5 433 5 l432 0 130 -219z m-840 -1266 c107 -27 154 -108 108 -185
-9 -16 -27 -34 -40 -41 l-23 -12 34 -23 c54 -37 73 -109 47 -176 -5 -15 -29
-40 -52 -55 -42 -28 -43 -28 -241 -31 l-198 -3 0 270 0 271 153 0 c104 0 172
-5 212 -15z m2125 -180 l0 -195 109 0 c125 0 121 3 121 -91 l0 -59 -205 0
-205 0 0 270 0 270 90 0 90 0 0 -195z"/>
<path d="M1360 1425 l0 -65 54 0 c45 0 58 4 70 22 40 56 4 108 -74 108 l-50 0
0 -65z"/>
<path d="M840 1455 l0 -35 49 0 c54 0 77 17 66 50 -5 17 -15 20 -61 20 l-54 0
0 -35z"/>
<path d="M840 1260 l0 -40 53 0 c55 0 77 12 77 42 0 24 -30 38 -84 38 l-46 0
0 -40z"/>
</g>
</svg>
