
<svg xmlns="http://www.w3.org/2000/svg" viewBox="0 0 512 512"><path fill="#40b882" d="M503.4 228.88l-43.25-39.4V58.78c0-8.32-6.74-15.06-15.06-15.06H340.98a15.06 15.06 0 00-15.06 15.06v8.37l-52.24-47.6a26.13 26.13 0 00-35.36 0L8.6 228.89a26.09 26.09 0 00-6.8 28.9 26.09 26.09 0 0024.48 16.77h36.7v209.72c0 8.31 6.73 15.05 15.05 15.05h125.91c8.32 0 15.06-6.74 15.06-15.05V356.93h74v127.34c0 8.31 6.74 15.05 15.06 15.05h125.9c8.32 0 15.06-6.74 15.06-15.05V274.55h36.7a26.09 26.09 0 0024.48-16.77 26.09 26.09 0 00-6.8-28.9zm-69.44 15.55a15.06 15.06 0 00-15.05 15.06v209.72h-95.8V341.87c0-8.31-6.74-15.05-15.05-15.05H203.94a15.06 15.06 0 00-15.05 15.05v127.34h-95.8V259.5c0-8.31-6.75-15.06-15.06-15.06H36.24L256 44.2l74.84 68.2a15.06 15.06 0 0025.2-11.14v-27.4h74v122.27c0 4.24 1.78 8.28 4.91 11.13l40.8 37.18h-41.79z"/></svg>